<svg width="111" height="148" viewBox="0 0 111 148" fill="none" xmlns="http://www.w3.org/2000/svg">
<path d="M46.2397 5.66879C45.8105 5.91393 45.1052 6.64932 44.7373 7.26216C44.0627 8.36526 44.0013 8.73296 44.0013 13.605C44.0013 17.4659 43.9094 18.8141 43.6334 18.9061C43.4188 18.998 43.2348 19.2431 43.2348 19.4882C43.2348 19.7334 43.1121 19.9172 42.9281 19.9172C42.7748 19.9172 42.5602 20.2543 42.4375 20.6833C42.3455 21.1123 42.1309 21.4493 42.0083 21.4493C41.8549 21.4493 41.579 21.9396 41.3643 22.5218C41.1497 23.104 40.8737 23.5942 40.7511 23.5942C40.6284 23.5942 40.3525 24.0845 40.1378 24.6667C39.8312 25.4328 39.5859 25.7085 39.2486 25.586C39.0033 25.4634 38.666 25.3715 38.5127 25.3408C38.3594 25.3102 37.1022 28.0373 35.7223 31.4079C34.3118 34.7785 33.0547 37.5363 32.932 37.5363C32.2574 37.5669 30.111 38.4555 29.2831 39.0071C25.7875 41.3971 23.7331 46.5143 24.5917 50.7429C24.8983 52.3976 25.8182 53.9909 27.29 55.4617C28.8232 57.0551 31.1842 58.5259 32.1654 58.5259C32.5334 58.5259 32.8094 58.6485 32.8094 58.8017C32.8094 59.3533 35.6917 61.9884 37.3168 62.969C38.0834 63.4286 38.298 63.7963 38.482 64.9301C38.574 65.6961 38.7273 66.5541 38.8193 66.8299C38.9113 67.2282 38.6967 67.3814 37.8688 67.5346C37.2862 67.6572 36.7955 67.8717 36.7955 68.0249C36.7955 68.2087 36.6116 68.3313 36.3969 68.3313C36.1823 68.3313 35.5077 68.6071 34.8638 68.9441C34.0665 69.3731 33.1773 69.557 31.9508 69.5263C30.019 69.4957 26.7381 70.7827 25.6342 71.9777C25.2969 72.3454 24.745 72.6212 24.4077 72.6212C24.0397 72.6212 23.0892 72.8663 22.2306 73.1727C21.2494 73.5404 20.4215 73.663 19.9309 73.5098C18.1831 73.0195 17.5699 73.2034 15.7914 74.7967C14.2276 76.2369 12.8478 78.1367 13.369 78.1367C13.4917 78.1367 13.3077 78.4431 12.9704 78.8108C12.6331 79.2092 12.1732 79.822 11.9892 80.1897C11.7746 80.6493 11.4373 80.8025 10.8853 80.7412C9.93477 80.6493 8.3403 82.4265 7.5124 84.4795C7.20577 85.215 6.86847 85.8278 6.71516 85.8278C6.56184 85.8584 6.31654 85.9197 6.13256 85.9504C5.97925 85.981 5.70328 86.0423 5.58063 86.0729C5.15135 86.1342 4.10881 87.1147 3.74085 87.7889C3.55687 88.1566 3.18892 89.4435 2.91295 90.6998C2.63698 91.9562 2.29969 93.3963 2.17704 93.9172C1.56378 96.3686 2.29969 98.9731 3.58753 98.9731C3.83284 98.9731 4.26212 99.4021 4.53809 99.8924C5.15135 100.965 7.11378 101.853 8.40162 101.608C8.89223 101.516 9.56682 101.639 9.96544 101.915C10.3641 102.16 11.0386 102.313 11.4986 102.221C12.0812 102.099 12.5105 102.252 12.9704 102.773C13.3384 103.14 14.1049 103.631 14.6262 103.815C16.558 104.458 17.7845 103.753 18.3978 101.547C18.6124 100.812 18.8884 100.199 19.011 100.199C19.7469 100.199 20.6055 96.1541 19.9616 95.7557C19.7776 95.6638 19.8389 95.1123 20.0842 94.3769C20.5748 92.998 20.5135 92.3239 19.7469 91.0063C19.195 90.1176 19.2257 90.087 19.9002 89.3822C20.3602 88.8613 20.5442 88.3711 20.4522 87.7582C20.3295 86.839 21.0654 86.0423 22.8439 85.1843C23.3652 84.9392 24.1624 84.4183 24.6223 84.0506C25.1129 83.6522 25.8182 83.3458 26.2168 83.3458C26.5848 83.3458 27.0754 83.1619 27.2594 82.9168C27.5047 82.6104 28.0873 82.5185 29.0378 82.5798C29.8964 82.6717 31.0002 82.4878 31.9508 82.1201C33.5453 81.5073 33.5453 81.5073 33.8212 83.1313C33.8826 83.6216 33.7906 84.0812 33.5759 84.2038C33.2693 84.357 33.4226 85.9504 34.2505 91.1595C34.8025 94.8365 35.4157 97.9619 35.5384 98.0539C35.6917 98.1458 35.9063 99.0038 36.029 99.9537C36.1516 100.934 36.3663 101.731 36.4889 101.731C36.6116 101.731 36.8262 102.068 36.9182 102.466C37.0409 103.018 36.8875 103.447 36.3663 104.029C35.7223 104.703 35.4464 104.795 34.5265 104.611C33.8212 104.489 33.2386 104.55 32.9627 104.795C32.5947 105.101 32.2881 104.948 31.2455 103.906C30.5403 103.202 29.835 102.65 29.7124 102.65C29.5897 102.65 29.2831 102.436 29.0071 102.191C28.3326 101.516 25.3583 100.168 25.1129 100.444C25.021 100.567 21.9853 106.358 18.3978 113.344C11.0386 127.746 11.4066 126.183 14.8715 127.776C19.4096 129.891 24.8063 127.746 27.106 122.904C27.6273 121.893 28.1179 121.035 28.2406 121.035C28.5472 121.035 31.1229 118.492 31.5522 117.787C31.8588 117.236 31.8588 117.236 31.8895 117.848C31.8895 118.4 32.4414 118.676 35.753 119.748C37.8994 120.453 39.7392 120.943 39.8925 120.851C40.0458 120.759 41.027 120.668 42.1002 120.606C44.7679 120.514 47.037 119.074 48.2942 116.715C48.7234 115.918 50.9005 107.032 50.9005 106.082C50.9005 105.622 51.4525 105.469 54.3654 105.01L57.7997 104.489L58.4129 105.193C58.7502 105.592 60.4674 106.787 62.1845 107.859C63.9016 108.932 65.3121 109.912 65.3121 110.065C65.3121 110.219 65.4654 110.249 65.6188 110.157C65.8027 110.065 65.9254 110.127 65.9254 110.28C65.9254 110.464 66.14 110.617 66.416 110.617C66.6613 110.617 66.8146 110.74 66.7226 110.862C66.6306 111.015 66.784 111.506 67.0293 111.965C67.5505 112.976 67.5812 113.681 67.1212 113.681C66.8146 113.681 67.3359 114.447 69.8809 117.848C71.6594 120.177 72.0273 120.453 73.1005 120.269C73.9284 120.116 73.9591 120.177 73.7444 120.974C73.2232 122.843 73.0699 124.099 73.1312 126.03C73.2232 128.573 73.8364 131.147 74.419 131.362C74.6643 131.453 81.1036 130.105 88.7386 128.359L102.598 125.203L102.384 123.762C102.261 122.996 101.985 121.801 101.801 121.127C101.402 119.84 99.624 117.573 98.4895 116.96C95.9751 115.55 95.3618 115.305 93.9207 115.244C93.0315 115.213 91.4983 115.336 90.5478 115.55C88.7386 115.918 88.34 115.949 87.2362 115.704C86.8989 115.642 86.163 115.55 85.6417 115.55C85.0284 115.52 84.6298 115.367 84.6298 115.121C84.6298 114.907 84.3538 114.202 84.0165 113.559C83.4646 112.456 83.4646 112.302 83.9246 111.536C84.3845 110.709 84.3845 110.648 82.974 108.687C82.1768 107.583 81.4409 106.634 81.3182 106.572C81.1955 106.511 80.6743 105.959 80.2143 105.316C79.7237 104.673 79.1411 104.213 78.9265 104.305C78.7118 104.397 78.4359 104.305 78.3132 104.152C78.2212 103.968 77.332 103.447 76.3815 102.987C75.2163 102.436 74.0817 101.547 72.9779 100.352C71.2914 98.4522 68.961 95.9702 67.9491 94.9897C67.1519 94.193 66.9986 90.1789 67.7652 89.9338C68.3478 89.7499 68.9917 88.5243 68.9917 87.605C68.9917 87.0535 69.053 87.0535 69.6969 87.4518C70.8315 88.1566 71.9967 88.2791 73.1005 87.8195C74.6337 87.176 77.2707 85.3988 77.2707 85.0311C77.2707 84.8472 77.8533 84.2651 78.5585 83.7135C79.4784 83.0087 80.0917 82.7636 80.5516 82.8862C81.4102 83.1007 83.2193 81.9976 84.3538 80.6187C84.8138 80.0671 85.2737 79.6688 85.427 79.6994C86.5922 79.9752 90.0878 77.0336 90.7931 75.1644C91.0384 74.521 91.2223 74.4597 92.0502 74.6129C92.9088 74.7661 93.2154 74.6435 94.0127 73.7855C95.0552 72.7131 95.5458 71.61 95.3925 70.6601C95.2699 69.8021 93.4607 67.7185 92.8475 67.7185C92.5409 67.7185 92.2955 67.504 92.2955 67.2282C92.2955 66.4622 90.5784 64.9607 89.6892 64.9607C89.1986 64.9607 88.524 64.593 87.9414 64.0415L87.0215 63.1222L87.5428 61.774C87.8494 60.9466 88.2174 60.4564 88.4627 60.5483C88.708 60.6402 89.7199 58.5259 91.437 54.328C93.3074 49.7624 93.9207 47.9239 93.6141 47.8626C93.1235 47.74 93.1235 47.8932 93.706 45.7483C94.8712 41.5197 95.3005 38.4249 95.2085 35.3913C95.1779 33.706 95.0552 32.0514 94.9632 31.7143C94.8712 31.3773 94.7179 30.6725 94.5953 30.1822C94.4726 29.6613 94.1353 28.6808 93.798 27.976C93.4914 27.2406 93.2154 26.5359 93.2154 26.352C93.2154 26.1988 93.1235 26.0456 92.9701 26.0456C92.8475 26.0456 92.5715 25.6779 92.3875 25.1876C91.9583 24.299 90.1491 22.0622 88.9226 20.9284C86.6229 18.8448 85.703 18.0787 85.5497 18.0787C85.427 18.0787 85.0284 17.8029 84.6298 17.4659C84.2312 17.1288 83.7406 16.8531 83.4953 16.8531C83.2806 16.8531 83.0967 16.7305 83.0967 16.6079C83.0967 16.4853 82.2994 15.9951 81.3489 15.5354C79.4171 14.6468 66.8759 9.46837 66.3853 9.37644C66.1094 9.3458 64.8215 8.88618 61.1726 7.62986C60.3447 7.32344 58.8729 6.95574 57.1864 6.58804C56.6038 6.46547 54.5494 5.94456 53.2002 5.60751C51.6364 5.20917 47.037 5.23981 46.2397 5.66879ZM76.7188 39.957C84.5071 43.1437 89.2599 45.258 89.6279 45.687C89.9038 46.0547 90.1491 46.8207 90.1491 47.4029C90.1491 48.4448 86.4389 58.005 85.7337 58.6791C85.1817 59.2307 84.1085 59.7516 83.4953 59.7516C82.4527 59.7516 58.137 49.6092 57.3704 48.8737C56.8491 48.3835 56.6038 47.7706 56.6038 47.1272C56.6038 46.5756 57.5544 43.7872 58.7502 40.9375C60.498 36.6477 61.0193 35.6671 61.7859 35.1769C62.3378 34.8398 63.0124 34.6559 63.5337 34.7479C63.9629 34.8398 69.9116 37.1686 76.7188 39.957ZM50.8085 51.5396C52.495 53.1942 52.7403 53.6232 52.0044 53.6232C51.3605 53.6232 49.7353 55.094 49.1527 56.1971C48.8768 56.7181 48.6621 57.7905 48.6621 58.5872C48.6928 60.2725 48.3862 60.2419 47.4969 58.4646C46.6997 56.8713 46.4237 54.3586 46.9143 52.8878C47.2516 51.8154 48.6008 49.9462 48.9994 49.9462C49.1221 49.9462 49.9193 50.651 50.8085 51.5396ZM70.1262 55.2166C74.327 56.9632 77.792 58.4953 77.8533 58.6485C77.8839 58.8323 77.2707 59.2 76.4428 59.5371C75.6456 59.8435 74.8483 60.2112 74.695 60.3644C74.4804 60.5789 73.2845 64.9913 73.2845 65.6961C73.2845 65.9412 74.419 65.8493 77.9759 65.2671C79.1105 65.0833 80.2143 65.022 80.3983 65.1446C80.5823 65.2671 80.6436 65.9412 80.521 66.9218C80.2143 69.5876 77.9759 72.039 76.2588 71.5793C75.2776 71.3342 74.7563 70.2924 74.7563 68.5152C74.7563 66.9831 74.7257 66.9831 74.4497 68.0249C74.2964 68.6071 74.2044 69.5876 74.2657 70.2005C74.419 71.9777 74.0204 71.3342 72.9472 68.0862C71.6594 64.164 70.3715 62.7851 67.5199 62.2336C65.4348 61.8352 64.0856 61.9272 59.3328 62.8464C57.6464 63.1528 55.8679 63.4286 55.3467 63.4286L54.4268 63.398L55.3467 62.9996C55.8679 62.7545 56.5732 62.2949 56.9411 61.9272C57.7384 61.1918 58.6889 59.4758 58.4436 59.2307C58.3823 59.1388 58.0757 59.5065 57.7997 60.058C56.3279 62.8771 51.9124 62.8771 50.4099 60.0274C50.0726 59.3226 49.95 58.5872 50.0726 57.4841C50.1953 56.1665 50.3792 55.7988 51.3605 54.9408C52.0044 54.3893 52.771 53.9296 53.0469 53.9296C53.3229 53.9296 54.0588 54.4812 54.7334 55.1553L55.9292 56.381L55.2853 57.2083C54.7641 57.9131 54.4268 58.0663 53.3842 58.0357C52.3417 58.005 52.127 58.1276 52.127 58.5872C52.127 58.9243 52.5563 59.629 53.0776 60.1499C53.9975 61.0386 54.0588 61.0692 54.4574 60.5483C54.7334 60.1499 55.0707 60.0274 55.592 60.1806C56.4505 60.3951 57.2171 59.6903 57.4011 58.5259C57.4931 57.8212 57.5544 57.8518 59.1795 59.3839C60.0994 60.2419 60.9273 60.9466 61.0193 60.9773C61.1726 60.9773 62.8897 58.6179 64.1469 56.6874C64.6989 55.8907 64.6682 55.8601 63.319 53.9909C62.5525 52.9491 62.0618 52.0911 62.2152 52.0911C62.3378 52.0911 65.9254 53.5007 70.1262 55.2166ZM45.0439 74.7661C45.8411 74.7661 45.8411 74.7354 44.8599 76.7272C43.94 78.5963 43.7867 78.6576 40.3831 78.5044C38.4513 78.4125 38.298 78.3205 37.8688 77.5239C37.6234 77.0336 37.4088 76.482 37.4088 76.2982C37.4088 76.1143 38.5433 75.4402 39.9538 74.7967L42.4682 73.6017L43.4188 74.1839C43.94 74.521 44.6759 74.7661 45.0439 74.7661ZM74.9403 78.5963C75.6149 79.6381 76.6268 80.6493 77.424 81.1396C78.1906 81.5992 78.8038 82.0588 78.8038 82.1508C78.8038 82.2427 78.1599 82.7636 77.3933 83.3152C75.7069 84.4795 75.063 84.4183 73.4072 82.9475C71.5674 81.3541 70.1262 77.4932 71.1994 77.1562C71.4141 77.0642 72.058 77.0029 72.6712 76.9723C73.7138 76.911 73.8671 77.0029 74.9403 78.5963ZM17.4779 78.7802C19.1643 79.5462 20.4215 80.68 21.1881 82.1814C21.9853 83.7748 21.924 84.2957 20.7281 85.2456L19.7163 86.0423L18.5511 84.6634C17.2019 83.0394 15.0555 81.5992 13.5837 81.3234C13.0317 81.2315 12.5718 81.0783 12.5718 80.9864C12.5718 80.9251 13.0931 80.251 13.7063 79.4849C14.9942 77.9528 15.4848 77.8609 17.4779 78.7802ZM70.7088 99.923C71.2914 100.567 71.2914 100.597 70.3715 101.241C68.7157 102.374 65.9867 105.316 65.3121 106.603L64.6682 107.89L63.779 107.246C63.2577 106.879 62.8591 106.419 62.8591 106.205C62.8591 105.347 69.0223 99.2795 69.8809 99.2795C70.0342 99.2795 70.3715 99.586 70.7088 99.923Z" fill="white" fill-opacity="0.9"/>
</svg>
