<svg width="129" height="129" viewBox="0 0 129 129" fill="none" xmlns="http://www.w3.org/2000/svg">
<path d="M124.01 2.04363C123.706 1.98546 123.394 1.98546 123.09 2.04363L106.311 5.25238C105.827 5.3476 105.384 5.58673 105.038 5.93822L50.0971 60.9034L47.0108 57.8171C46.7766 57.5832 46.5225 57.3701 46.2515 57.1803C46.4514 51.448 41.9665 46.6389 36.2342 46.4389C30.502 46.239 25.6928 50.7239 25.4929 56.4562C25.2929 62.1884 29.7779 66.9976 35.5101 67.1975C35.7428 67.2055 35.9758 67.2058 36.2088 67.1984C36.3983 67.4697 36.6115 67.7238 36.8457 67.9578L42.8223 73.9344L42.4549 74.2283L17.5932 99.139L17.2992 99.4819L15.3152 97.4979C12.4641 94.7291 7.92772 94.7291 5.07658 97.4979C2.30781 100.349 2.30781 104.885 5.07658 107.736L20.3855 122.923C22.7217 126.242 27.3055 127.038 30.6241 124.702C33.9428 122.366 34.7392 117.782 32.4033 114.464C31.9168 113.772 31.3152 113.171 30.6241 112.684L28.6156 110.676L28.9585 110.382L53.7467 85.5692L54.0407 85.2017L60.0173 91.1783C60.2509 91.4126 60.505 91.626 60.7766 91.8152C60.6067 97.5484 65.1167 102.334 70.8499 102.504C73.7022 102.588 76.464 101.496 78.486 99.4819C82.5484 95.452 82.5747 88.8918 78.5448 84.8291C76.5029 82.7707 73.6918 81.662 70.7948 81.7725C70.604 81.5022 70.3909 81.2481 70.1579 81.0132L67.0716 77.9269L122.061 22.9373C122.413 22.5913 122.652 22.1476 122.747 21.6636L125.956 4.90946C126.21 3.58095 125.339 2.29776 124.01 2.04363ZM27.048 119.469C26.112 120.326 24.6772 120.326 23.7412 119.469L8.53028 104.258C7.3322 103.63 6.87017 102.15 7.49845 100.952C8.12673 99.7535 9.60711 99.2915 10.8052 99.9198C11.2461 100.151 11.6061 100.511 11.837 100.952L17.0298 106.144L21.9287 111.043L27.1214 116.236C27.9132 117.179 27.8817 118.563 27.048 119.469ZM50.293 82.042L25.2844 106.928C25.179 107.039 25.0547 107.131 24.917 107.198L20.8019 102.96C20.8714 102.824 20.9624 102.7 21.0714 102.593L45.9576 77.7065C46.0635 77.596 46.1878 77.505 46.325 77.4371L50.5625 81.6746C50.4954 81.8123 50.4042 81.9367 50.293 82.042ZM69.913 86.7694L69.8885 86.7449C72.8468 86.0881 75.7772 87.954 76.434 90.912C76.8375 92.7301 76.2913 94.629 74.9833 95.9547C72.8134 98.0355 69.3885 98.0355 67.2186 95.9547C65.8867 94.6216 65.3399 92.6939 65.7734 90.8599C66.0282 89.611 65.2826 88.3753 64.0588 88.0186C63.8476 87.9742 63.6528 87.8725 63.4955 87.7247L54.3101 78.5393L49.4112 73.6404L40.3239 64.5041C40.1741 64.3384 40.0725 64.1354 40.0299 63.9162C39.7345 62.8158 38.7192 62.0647 37.5805 62.1036H37.0416C35.2082 62.5182 33.2897 61.9738 31.9468 60.6585C29.8027 58.5174 29.8002 55.0432 31.9416 52.899C31.9435 52.8971 31.9453 52.8953 31.9468 52.8938C34.1219 50.8252 37.5364 50.8252 39.7115 52.8938C41.0477 54.2345 41.5945 56.1714 41.1567 58.0131C40.785 59.3137 41.5379 60.6695 42.8385 61.0415C42.8817 61.0537 42.9255 61.0651 42.9692 61.0749C43.1891 61.115 43.393 61.2169 43.5571 61.3688L66.7287 84.5404C66.8763 84.7073 66.9776 84.91 67.0226 85.1283C67.4109 86.3453 68.669 87.0599 69.913 86.7694ZM118.069 20.0224L63.8139 74.2773L53.7222 64.1856L107.977 9.93079L120.469 7.48136L118.069 20.0224Z" fill="white" fill-opacity="0.9"/>
</svg>
