<svg width="126" height="129" viewBox="0 0 126 129" fill="none" xmlns="http://www.w3.org/2000/svg">
<path d="M76.4533 5.68282C75.4578 5.96696 74.3486 7.18877 73.9504 8.38216L73.6375 9.31983L71.4474 8.60948C51.3671 2.18789 25.8827 8.35374 11.889 22.9586C5.37565 29.778 2.70206 36.0575 0.995516 48.7018C0.34134 53.3901 0.511994 66.7731 1.2515 70.7511C2.36075 76.6612 4.55082 83.1396 7.6226 89.6181L9.49981 93.5676L7.13908 100.529C4.43705 108.343 4.43705 107.633 7.11064 108.57C9.6989 109.48 12.9129 108.94 15.2452 107.206C16.4113 106.326 17.549 104.592 18.2032 102.717C18.6583 101.381 19.2271 100.529 20.3933 99.2789C20.5924 99.08 20.763 98.7958 20.763 98.6253C20.763 98.1707 22.0429 97.4319 22.498 97.6024C22.7255 97.6877 23.0668 98.1707 23.2659 98.6537L23.5788 99.5346L25.5129 99.3641C26.5653 99.2504 28.3003 99.1652 29.3811 99.1652C30.8885 99.1652 31.2867 99.08 31.2867 98.739C31.2867 98.4833 31.5427 98.3128 31.9978 98.3128C32.652 98.3128 32.7088 98.4264 32.7088 99.6198V100.955L31.6565 100.785C31.0592 100.671 30.0637 100.501 29.438 100.359C27.3332 99.9324 27.5892 99.1368 25.3422 112.747C24.2045 119.567 23.2091 125.505 23.1237 125.903C23.01 126.556 23.0953 126.698 23.9201 126.954C25.8826 127.579 27.5039 127.636 29.1251 127.181C32.7657 126.102 34.8989 123.658 35.5815 119.652C35.7806 118.544 36.2357 117.379 36.7192 116.64C37.1743 115.958 37.5441 115.304 37.5441 115.134C37.5441 114.992 38.312 114.878 39.279 114.907C40.7012 114.935 41.0709 115.049 41.4691 115.56L41.9526 116.185L44.228 115.617C45.4795 115.304 46.6456 114.935 46.7878 114.793C46.9585 114.651 47.5558 114.48 48.1531 114.367C49.2908 114.139 49.7743 113.713 49.2055 113.372C49.0064 113.259 49.177 113.117 49.7174 113.003C50.5991 112.832 52.4763 111.128 52.7608 110.247C52.903 109.82 53.1874 109.707 54.2966 109.735C55.7188 109.735 57.3684 109.167 57.9088 108.513C58.2217 108.144 60.3833 103.314 61.7201 100.018C62.0614 99.1652 62.4027 98.057 62.4881 97.6024C62.6872 96.4374 63.3698 95.7271 64.1093 95.926C64.5359 96.0112 64.991 95.7839 65.6736 95.0736C66.47 94.2496 66.7544 94.1075 67.5793 94.2496C68.9445 94.4769 69.8547 93.7949 73.4384 89.9022C76.4533 86.6346 77.2497 85.3275 76.7662 84.3614C76.3395 83.5374 76.7946 83.5659 78.2167 84.4467C79.07 84.9866 79.9802 85.2991 80.6059 85.2991C81.3739 85.2991 81.8289 85.498 82.4262 86.1231C82.8529 86.5778 83.4217 86.9471 83.6777 86.9471C83.9337 86.9471 84.2465 87.0608 84.3319 87.2313C84.6447 87.7143 86.8632 87.5438 88.0294 86.9471C88.6551 86.6346 89.3377 86.3789 89.5368 86.3789C89.7644 86.3789 90.5608 85.9242 91.3287 85.3559C92.7508 84.3046 93.5757 83.1396 93.5757 82.1736C93.5757 81.8894 93.8316 81.4064 94.1445 81.1222C94.4574 80.8381 94.6565 80.5255 94.5711 80.4403C94.5143 80.3266 94.884 80.2982 95.3675 80.3551C96.107 80.4403 96.4483 80.2698 97.2447 79.4174C98.5246 78.0535 99.5486 76.5192 99.5486 75.9793C99.5486 75.7236 100.004 75.0985 100.544 74.5586C101.625 73.5073 102.251 72.0013 102.563 69.6429C102.734 68.3075 102.848 68.1086 103.587 67.8529C104.412 67.5687 105.237 66.148 105.237 65.0399C105.237 64.3011 106.745 61.9711 107.228 61.9427C107.484 61.9427 109.048 59.6696 110.897 56.6293C113.684 52.0262 114.054 51.2874 113.656 51.0033C113.286 50.7192 113.286 50.6055 113.599 50.1225C113.827 49.8099 114.396 48.5597 114.907 47.3095C115.419 46.0592 115.931 44.7806 116.045 44.4681C117.126 41.854 117.638 37.1088 117.126 34.381C116.785 32.5057 116.728 32.3068 116.472 31.6817C116.33 31.3692 115.988 30.4883 115.704 29.6927C115.391 28.9255 115.05 28.2152 114.936 28.1299C114.822 28.0447 114.396 27.3912 113.969 26.624C113.542 25.8852 113.03 25.2885 112.86 25.2885C112.689 25.2885 112.632 25.2033 112.717 25.0896C112.917 24.8907 108.138 20.174 107.74 20.174C107.655 20.174 107.37 20.0035 107.171 19.8046C106.745 19.3784 94.5143 11.9339 94.2298 11.9339C94.1445 11.9339 93.405 11.5361 92.6371 11.0531C91.8407 10.57 91.0443 10.1438 90.8736 10.1154C90.7314 10.087 89.6222 9.60396 88.456 9.06409C86.0953 7.92753 84.7585 7.33083 84.3319 7.21718C84.1896 7.16035 83.1088 6.81938 81.9427 6.42159C79.6389 5.59758 77.6195 5.34185 76.4533 5.68282ZM63.9671 8.0696C66.7829 8.58105 71.1915 9.77445 72.642 10.3711C73.8082 10.8542 73.8935 11.3656 73.3531 14.3775C72.9264 16.9064 72.8696 16.9916 71.2199 18.7817C70.3951 19.691 69.2289 21.0833 68.6601 21.8788C67.7784 23.1007 67.5793 23.2427 67.0957 22.987C66.3562 22.6176 66.1571 22.7881 65.2185 24.4361C64.5359 25.6579 64.2231 25.8852 62.5734 26.5388C56.9418 28.7551 50.8551 34.6084 48.6082 39.9786L48.0109 41.3993L47.3567 40.7458C46.8447 40.2628 46.3612 40.0639 45.5079 40.0639C44.6547 40.0639 43.972 39.7797 42.7206 38.9557C40.4736 37.4214 38.6533 36.5689 35.8375 35.6597C32.5951 34.6084 27.8167 34.3811 24.6312 35.063C16.6673 36.8531 10.7228 44.1271 8.53276 54.7824C6.8831 62.994 7.30974 73.6493 9.81267 86.8903C10.2109 88.9645 10.4384 90.8399 10.3246 91.0388C10.0402 91.5502 7.05376 84.9866 5.40409 80.2698C1.64969 69.3872 0.853304 58.1352 3.01493 45.4625C4.8068 34.8641 7.39507 29.5222 13.7946 23.1575C17.6059 19.35 21.1043 16.8496 26.1671 14.2355C33.1924 10.6269 40.2745 8.52423 48.3522 7.55815C50.7413 7.27401 61.6632 7.61497 63.9671 8.0696ZM62.5734 28.613C59.7007 33.5002 59.9567 33.1877 58.7052 33.3297C56.9987 33.5002 54.5526 34.722 53.2443 36.0291C52.2772 36.9951 51.0542 39.0978 50.5138 40.689C50.3716 41.1436 49.4899 41.4278 49.4899 41.03C49.4899 40.9447 49.945 39.9786 50.5138 38.8989C52.5901 34.9778 56.7427 30.8861 60.81 28.7266C62.0045 28.1015 63.0569 27.5617 63.0854 27.5617C63.1422 27.5617 62.9147 28.0447 62.5734 28.613ZM90.9021 36.2848C92.1535 37.052 96.8465 39.9218 101.397 42.6496C105.92 45.3489 109.873 47.8209 110.129 48.0766C110.442 48.3892 110.641 49.0143 110.641 49.7531C110.641 50.7192 110.186 51.6568 108.024 55.2654C105.379 59.6696 104.583 60.522 103.161 60.522C102.279 60.522 81.8289 48.3324 80.7197 47.139C79.4113 45.7467 79.6104 45.0079 82.7106 39.9218C84.3888 37.1372 85.754 35.2335 86.1806 35.0062C87.2614 34.4379 88.456 34.7788 90.9021 36.2848ZM33.0786 36.1996C36.4917 36.8531 39.8763 38.3874 43.0903 40.689C43.2325 40.8026 43.1757 41.0868 42.8912 41.3993C42.0664 42.3086 41.9526 43.4167 42.6352 44.1555L43.2325 44.7806L42.3508 46.5423C41.7251 47.8777 41.3553 48.304 40.8718 48.3324C40.4167 48.3608 40.3599 48.3892 40.7296 48.5029C41.0994 48.5881 41.1847 48.8154 41.0425 49.5258C40.9571 50.0372 40.7296 50.6339 40.5305 50.8612C39.5919 51.9694 39.2506 53.1912 39.2506 55.237C39.2506 57.1123 39.3359 57.4249 39.8763 57.7943C40.4736 58.2205 40.4736 58.3057 40.1323 59.7264C39.9332 60.5504 39.7057 61.8859 39.6203 62.6815C39.4781 64.1874 39.9332 66.489 40.3883 66.489C40.5305 66.489 41.4407 67.2562 42.4077 68.1654L44.1427 69.8418L42.9766 72.939C42.3224 74.6154 41.4122 76.9738 40.9571 78.1388C40.5021 79.3037 40.047 80.5255 39.9617 80.8381C39.6772 81.6905 33.7328 86.663 33.3061 86.3789C33.107 86.2652 32.4529 84.9581 31.884 83.4806C28.926 75.9509 24.489 71.5467 19.9097 71.4899C15.4158 71.4615 11.889 76.6044 11.1779 84.2478C11.0926 85.2707 10.9504 86.0663 10.8935 86.0095C10.7513 85.8674 10.0687 81.8326 9.49981 77.9683C8.81719 73.0811 8.64653 61.9711 9.21538 57.8795C10.9788 45.4341 16.7526 37.9044 26.0249 35.9722C27.3332 35.7165 31.1161 35.8302 33.0786 36.1996ZM74.0641 48.4176C75.3725 50.1225 75.4009 50.5487 74.1779 50.5771C73.5237 50.5771 72.0447 51.8841 71.5043 52.9355C71.2483 53.4185 71.0208 54.2993 71.0208 54.896C70.9924 55.4927 70.9355 55.9758 70.907 55.9758C70.8501 55.9758 70.5373 55.4359 70.2529 54.754C69.5134 53.1344 69.5134 50.6055 70.2529 49.1848C70.7364 48.2187 72.4714 46.4286 72.6705 46.6559C72.7273 46.7128 73.3531 47.5084 74.0641 48.4176ZM91.7838 54.8392C95.2538 56.9418 98.0411 58.7319 97.9842 58.8172C97.9273 58.9308 97.1594 59.1581 96.3061 59.357C95.4529 59.5559 94.628 59.8401 94.4858 60.039C94.3152 60.2379 93.8601 61.204 93.4334 62.2269C93.0068 63.2498 92.6086 64.2443 92.5233 64.4148C92.4095 64.6989 93.1775 64.7841 95.8226 64.7841H99.2641V65.6366C99.2641 69.2736 94.5711 72.2002 93.5757 69.1883C93.405 68.6485 93.3197 67.7676 93.4334 67.2562C93.5757 66.489 93.5472 66.4322 93.2628 66.8868C93.0921 67.1709 92.9215 67.9665 92.893 68.6485C92.8362 70.4385 92.5517 69.8418 91.926 66.5458C91.2434 63.1077 90.6745 62.028 89.1386 61.1755C87.2614 60.0674 85.9815 59.8969 80.8334 59.9253C77.5626 59.9537 75.9698 59.8685 76.0836 59.6696C76.1689 59.5275 76.4818 59.3855 76.7377 59.3855C77.5626 59.3855 79.0131 58.3057 79.5251 57.3396L79.9802 56.402L79.0131 57.3396C76.7946 59.4423 73.9219 59.0161 72.5567 56.3452C71.6181 54.5266 72.7274 51.9126 74.7752 51.117C75.7423 50.7476 76.2542 51.0033 77.1644 52.2819C78.0176 53.4753 77.9323 54.2709 76.9084 54.6687C76.2258 54.9244 75.145 54.8676 74.9459 54.5551C74.6045 53.9868 74.2348 54.2709 74.2348 55.0949C74.2348 55.578 74.5192 56.2883 74.889 56.7145C75.4863 57.3965 75.6 57.4249 76.1689 57.0839C76.6524 56.7714 76.9084 56.7714 77.335 57.0271C77.9323 57.3965 78.558 56.9418 78.9847 55.7485C79.2122 55.1233 79.326 55.1802 80.6343 56.8282L82.028 58.5899L84.1043 56.4588L86.2091 54.3277L85.6402 53.3901C85.3273 52.8502 84.8723 51.9125 84.6163 51.3159L84.1328 50.2077L84.8154 50.6055C85.1567 50.8612 88.3138 52.7366 91.7838 54.8392ZM55.1499 51.4579C55.9463 51.9694 56.6005 52.424 56.6005 52.4808C56.6005 52.6797 50.4854 58.533 50.2863 58.533C49.8881 58.533 50.0587 56.9134 50.4854 56.544C50.7129 56.3451 50.912 56.0326 50.912 55.8621C50.912 55.6916 51.3102 55.3791 51.7653 55.2086C52.7608 54.8392 53.5856 53.2764 53.1589 52.5092C52.9314 52.1114 53.3296 50.5771 53.6425 50.5771C53.6709 50.5771 54.3535 50.9749 55.1499 51.4579ZM59.2456 56.1178C60.298 57.1123 61.1513 58.1352 61.1513 58.391C61.1513 58.7603 61.0375 58.8456 60.4402 58.8172C60.3549 58.8172 59.8714 59.0161 59.3594 59.3002C58.8759 59.5559 58.3355 59.7833 58.2217 59.8117C58.1079 59.8117 57.9088 59.9537 57.7951 60.1526C57.6529 60.38 57.3969 60.2379 57.0271 59.6696C56.3729 58.7035 55.1215 58.0216 53.8416 57.9079C53.6425 57.8795 53.4718 57.7943 53.4718 57.709C53.4718 57.5385 56.9702 54.2709 57.1978 54.2709C57.2831 54.2709 58.2217 55.0949 59.2456 56.1178ZM49.3477 59.2434C49.433 60.0958 49.4614 60.9198 49.3477 61.0903C48.6082 62.3121 44.8253 62.9088 42.6352 62.1985C40.9856 61.6302 40.7012 61.2324 41.014 59.8685C41.1562 59.215 41.2985 58.6751 41.3269 58.6467C41.3553 58.6183 42.0664 58.7035 42.8912 58.8456C44.5409 59.1013 46.7878 58.7888 48.0109 58.1352C49.1201 57.567 49.1201 57.5385 49.3477 59.2434ZM62.5165 65.3808C64.6781 66.489 64.8488 66.6311 64.8488 67.4551C64.8488 67.9665 65.0479 68.62 65.2754 68.961C65.7021 69.5577 65.6452 69.5861 64.2515 69.8703C63.4836 70.0407 62.5734 70.1828 62.289 70.1828C61.6348 70.1828 58.9043 66.9152 58.8759 66.1196C58.8759 65.6081 59.6723 64.2159 59.9851 64.2159C60.0705 64.2159 61.2082 64.7273 62.5165 65.3808ZM22.1567 73.6209C23.977 74.4449 25.6836 75.9225 27.1341 77.9399C28.2718 79.5595 29.8361 82.4009 30.4334 83.9637L30.6894 84.6172L27.5039 84.6456C23.1522 84.7024 22.4696 84.8445 22.4696 85.6969C22.4696 86.6346 21.8723 86.5493 20.6777 85.4412C19.5684 84.4467 17.3499 83.2249 15.3874 82.5429C13.7377 81.9747 13.3964 82.0031 13.0836 82.7418C12.6569 83.85 12.7422 82.5429 13.2542 80.6108C14.1359 77.1727 15.814 74.5586 17.6912 73.6209C19.2271 72.8822 20.5355 72.8822 22.1567 73.6209ZM89.6222 75.8941C90.4185 77.1727 92.7224 79.3322 93.6041 79.6163C93.8316 79.7015 93.6894 80.1562 93.1775 80.9233C92.7793 81.5769 92.3811 82.1167 92.2957 82.1167C92.2389 82.1167 91.4709 81.861 90.6176 81.5485C88.7689 80.8381 86.9486 79.0196 86.4366 77.3148C86.0953 76.1782 86.1237 76.0929 86.8917 75.2974C88.0578 74.0755 88.5982 74.2176 89.6222 75.8941ZM74.7183 77.5421C75.0596 77.7125 75.6285 77.8546 75.9982 77.8546C76.4818 77.8546 76.9368 78.224 77.591 79.1333C78.103 79.8436 78.5012 80.554 78.5012 80.6676C78.5012 80.8097 78.1599 81.1791 77.7332 81.4916C76.9937 82.0315 76.9368 82.0315 75.3156 81.52C74.377 81.2643 73.4669 80.8949 73.2678 80.696C73.0402 80.5255 72.7842 79.6731 72.6989 78.7639C72.5851 77.883 72.4429 76.7465 72.3576 76.2918L72.1869 75.4394L73.1255 76.3203C73.6659 76.8317 74.377 77.3716 74.7183 77.5421ZM48.4944 93.0846C49.8881 94.2496 50.0018 94.4485 49.7459 95.0736C49.6036 95.4714 49.4045 96.5227 49.3192 97.4035C49.2339 98.2844 49.1201 99.2789 49.0632 99.5914C49.0064 99.904 48.9495 100.387 48.9495 100.7C48.921 101.069 48.7788 101.154 48.4375 101.012C48.1531 100.898 47.3567 100.756 46.7025 100.728C46.0199 100.7 45.3657 100.501 45.2235 100.302C45.0244 99.9892 44.74 100.018 43.6023 100.387C42.8628 100.614 41.4122 101.041 40.4452 101.296C38.1698 101.865 37.5441 102.262 37.5441 103.058C37.5441 103.854 37.1459 103.882 36.3495 103.143L35.7522 102.603L36.577 99.5914L37.4018 96.5795L41.9526 94.1927C44.4556 92.8857 46.6172 91.8059 46.731 91.7775C46.8732 91.7775 47.6696 92.3742 48.4944 93.0846ZM56.2592 96.3806C58.0226 96.9205 60.8669 98.1707 60.8669 98.4264C60.8669 98.6253 60.0136 100.586 59.9283 100.586C59.8714 100.586 58.9612 100.131 57.852 99.5914C56.0316 98.6822 54.9224 98.2844 51.879 97.4888C50.7982 97.2046 50.7413 97.1194 50.8551 96.2954L50.9973 95.4145L52.6754 95.585C53.614 95.6987 55.2352 96.0396 56.2592 96.3806ZM53.6425 99.0515C56.6289 99.904 59.4447 101.325 59.4447 101.978C59.4447 102.234 59.3025 102.632 59.1603 102.859C58.9328 103.228 58.7052 103.172 57.5106 102.518C56.7711 102.092 55.2352 101.495 54.0976 101.183C51.7653 100.529 51.9928 100.586 51.0542 100.586C50.4854 100.586 50.3432 100.444 50.3432 99.904C50.3432 99.0515 50.5991 98.3128 50.912 98.3128C51.0258 98.3128 52.2772 98.6537 53.6425 99.0515Z" fill="#959696" fill-opacity="0.58"/>
</svg>
