<svg width="157" height="133" viewBox="0 0 157 133" fill="none" xmlns="http://www.w3.org/2000/svg">
<g clip-path="url(#clip0)">
<path d="M133.257 9.2413C132.479 9.59486 116.64 20.4843 98.1141 33.4951C79.5879 46.5058 63.8194 57.466 62.9709 57.8902C62.2638 58.3145 61.0617 62.7693 60.2839 67.7897L58.9404 76.9114L46.4246 89.4272C34.5452 101.307 33.6966 102.014 31.646 101.377C25.2114 99.4681 16.8675 106.822 17.2918 114.176C17.5039 117.641 18.211 119.055 21.1101 121.954C24.2921 125.136 25.2821 125.56 29.5247 125.56C33.7674 125.56 34.7573 125.136 37.9393 121.954C40.9091 118.984 41.5455 117.641 41.7577 113.893L42.1112 109.297L54.627 96.7811L67.2135 84.1946L75.7695 82.9925L84.3255 81.649L108.226 47.4251C134.106 10.3727 135.52 8.25135 133.257 9.2413Z" fill="#959696" fill-opacity="0.58"/>
</g>
<defs>
<clipPath id="clip0">
<rect width="157" height="133" fill="white"/>
</clipPath>
</defs>
</svg>
