<svg width="138" height="130" viewBox="0 0 138 130" fill="none" xmlns="http://www.w3.org/2000/svg">
<path d="M37.9223 1.51851C26.9711 2.44444 20.2005 4.25925 17.7587 6.85185C16.3898 8.33333 16.5008 11.1852 18.0917 14.8148C21.3845 22.2593 21.1995 21.5926 20.5335 24.5185C20.2005 25.963 19.9416 28.2963 19.9416 29.7037C19.9416 32.1111 19.9046 32.2222 19.0166 32.2222H18.1287V40.1852V48.1481L16.4268 49.7037C13.578 52.3333 12.3571 55.8518 12.6531 60.5185C12.8751 63.8518 13.985 66.2592 16.4638 68.7407C18.9426 71.2222 21.6804 72.2963 25.3062 72.1852C27.341 72.1481 28.266 72.2963 29.4869 72.9259C31.1518 73.7407 36.5534 75.1852 38.1072 75.1852C38.6622 75.1852 39.7721 75.8148 40.8081 76.7037C42.3619 78.0741 42.5099 78.2963 42.066 78.8518C41.474 79.5185 39.4392 83.7407 39.5131 84.1481C39.5501 84.2963 38.4032 85.4444 36.9973 86.7037C35.5544 87.963 34.2965 89.4074 34.1855 89.8889C34.0375 90.3704 33.8526 90.7037 33.7416 90.5926C33.6306 90.4815 33.3346 90.5555 33.0386 90.7778C32.7796 91 32.5576 91.0741 32.5576 90.9259C32.5576 90.7407 32.2617 90.8889 31.8917 91.2222C31.3367 91.7407 30.8928 91.7778 29.4869 91.5185C27.822 91.2222 27.748 91.2592 25.2692 93.1481C23.9003 94.1852 22.5684 95.4444 22.3464 95.8889C21.4215 97.7037 19.6826 99.2592 18.6097 99.2592C17.3518 99.2592 14.8359 101.481 14.096 103.222C13.689 104.222 13.541 104.296 11.6542 104.296C9.21234 104.259 8.28741 105 6.73352 108.296C3.32977 115.481 3.07079 116.63 4.69867 118.37C5.29062 118.963 5.88258 119.926 6.10457 120.556C6.51154 121.778 8.4354 123.074 9.91529 123.037C10.4702 123.037 11.3212 123.444 11.8022 123.926C12.2831 124.444 13.1341 124.815 13.689 124.815C14.392 124.815 14.7989 125.074 15.0949 125.741C15.5759 126.741 17.5737 128.148 18.5727 128.148C19.7936 128.148 21.0145 127.296 21.7914 125.889C22.2354 125.111 22.7164 124.444 22.8644 124.444C23.0123 124.444 23.6783 123.593 24.3812 122.556C25.2692 121.222 25.5282 120.444 25.3802 119.778C25.2322 119.222 25.4172 118.333 25.8241 117.481C26.5271 116.148 26.5641 115.63 26.1201 113.852C25.9721 113.259 26.3051 112.63 27.6 111.333C28.9689 110 29.2649 109.444 29.1539 108.704C29.0429 108.111 29.1169 107.778 29.4129 107.778C29.6719 107.778 30.0788 107.519 30.3378 107.222C30.5968 106.926 31.1887 106.667 31.6697 106.667C32.1137 106.667 32.6316 106.481 32.7426 106.296C32.8906 106.074 33.1126 106 33.2976 106.111C33.4456 106.222 34.0005 105.815 34.4815 105.222C34.9995 104.667 36.4054 103.704 37.6633 103.148C38.9212 102.593 39.9571 101.889 39.9571 101.63C39.9571 101.333 40.4011 101.037 40.993 100.889C43.5459 100.333 44.5448 99.8148 46.4316 98.0741C48.4295 96.2592 48.5035 96.2222 49.2064 96.8518C49.6134 97.2222 49.9464 97.8148 49.9464 98.1481C49.9464 98.7407 61.2306 109.556 62.2665 110C62.5255 110.111 63.6354 110.889 64.7453 111.741C67.2241 113.593 69.333 114.222 72.1448 113.889C73.5137 113.741 74.3646 113.778 74.5126 114.037C74.6606 114.259 75.4005 114.593 76.1775 114.815C77.2874 115.111 78.1383 115.037 80.3212 114.444C81.8381 114 84.5759 113.296 86.4627 112.815L89.8295 111.963L91.2354 113.185C92.0123 113.889 92.8633 114.444 93.1223 114.444C93.4182 114.444 93.6032 114.704 93.5292 115.037C93.4552 115.481 93.9732 115.852 95.4531 116.333C99.1898 117.593 102.89 118.519 103.26 118.333C103.445 118.185 103.592 118.407 103.592 118.741C103.592 119.444 106.108 124.704 106.589 125.037C106.848 125.185 136.594 109.593 137.408 108.889C137.815 108.481 135.965 104.519 134.744 103.222C132.45 100.815 128.233 99.3333 125.125 99.8518C124.163 100 123.201 100.148 122.942 100.222C122.683 100.259 121.573 100.815 120.426 101.407L118.391 102.519L117.319 101.037C116.135 99.4074 113.989 97.7778 113.064 97.7778C112.731 97.7778 112.472 97.6296 112.472 97.4815C112.472 97.2963 111.288 97 109.845 96.7778C108.254 96.5185 106.922 96.0741 106.404 95.6296C105.997 95.2592 104.85 94.6296 103.925 94.2222C102.261 93.5555 102.224 93.5185 102.372 92.1852C102.483 91.4074 102.409 90.2963 102.187 89.6667C101.817 88.6667 101.891 88.4074 102.557 87.7778C103.297 87.0741 103.297 87 102.705 85.4815C102.372 84.5926 101.706 83.2222 101.188 82.4074C100.707 81.5926 99.9668 80.2222 99.5228 79.3333C99.1158 78.4444 98.5979 77.7778 98.3389 77.8148C98.0799 77.8518 96.933 77.037 95.8231 75.963C93.8622 74.0741 91.9383 72.963 90.6804 72.963C89.6075 72.963 88.9786 72.3333 89.4595 71.7407C89.6815 71.4815 89.9775 70.2592 90.0515 69.037C90.1255 67.8518 90.4585 65.7407 90.7544 64.4074C91.0134 63.0741 91.1614 61.6667 91.0504 61.2592C90.9024 60.8889 90.8284 60.2222 90.8654 59.8148C90.9024 59.4074 90.9394 58.7037 90.9764 58.2592C90.9764 57.8148 91.4204 57.0741 91.9013 56.5926C92.3823 56.1111 92.8633 55.3333 92.9743 54.8148C93.1223 54.2593 93.7142 53.5926 94.5282 53.1852C95.2681 52.7778 96.008 52.1852 96.193 51.8889C96.822 50.6296 96.97 48.0741 96.526 45.1481C95.8231 40.4815 96.008 39.2593 97.4509 39.2593C98.5609 39.2593 99.4118 38.2963 99.7078 36.5926C100.078 34.5926 99.0788 33.7407 96.452 33.8148C95.3421 33.8518 94.1952 33.6667 93.9362 33.4444C93.6402 33.2222 92.8263 32.963 92.1233 32.8889C91.1244 32.8148 90.7914 32.5926 90.7174 31.9259C90.6434 31.4815 90.3475 31.1111 90.0885 31.1111C89.7555 31.1111 89.4595 30.3704 89.2375 29.1481C89.0526 28.1111 88.6086 25.6296 88.2386 23.7037C86.7217 15.2222 82.8 9.07407 76.4365 5.37037C74.4756 4.22222 69.074 2.37037 65.6332 1.66666C62.5995 1.03703 44.7298 0.962959 37.9223 1.51851ZM85.5378 31.4444L86.5737 32.5926L86.6477 38.8148C86.6847 42.2222 86.6847 45.4815 86.6477 46.1111C86.5367 47.2593 85.7598 48.3333 84.5389 49C84.0579 49.2593 78.2123 49.4815 67.7051 49.6667C53.1652 49.8889 51.5003 49.8518 50.3164 49.3333C48.4295 48.4074 48.1335 47.1852 48.1335 39.6296C48.0965 32.6667 48.2445 32.037 50.0574 31.037C50.6123 30.7407 55.274 30.5185 65.3003 30.3333C84.3539 30 84.2429 30 85.5378 31.4444ZM76.8434 52.1481C74.9196 54.0741 74.8826 54.2963 75.5485 58.1852C75.8445 60.1111 76.1035 60.7407 76.4735 60.5555C76.7324 60.4444 77.1764 60.2963 77.4354 60.1852C77.7314 60.037 78.0274 60.7037 78.3233 62.2963C78.5823 63.5555 79.1003 65.037 79.5442 65.6296C80.9131 67.4815 79.3963 66.3333 77.1764 63.8518C73.8467 60.1481 72.4778 59.2592 69.9619 59.2592C67.1501 59.2963 64.7823 60.3333 59.2697 64C54.4971 67.1481 53.2022 67.7407 54.83 66C56.2359 64.5185 56.6059 63.5555 56.5689 61.7778L56.5319 60.1852L56.2729 61.4815C55.94 63.1481 55.422 64.037 54.2011 65.1852C53.4241 65.9259 52.8322 66.1111 51.2783 66.1111C48.8365 66.1111 47.5046 65.2592 46.5796 63.1111C45.7657 61.3333 45.9877 59.5555 47.1716 57.8518C47.9115 56.8518 48.5405 56.8518 50.6123 57.7778C51.7963 58.2963 52.1662 58.7037 52.1662 59.3704C52.1662 60.6296 51.3893 61.5185 49.9464 61.8148L48.6515 62.0741L49.8354 63.2592C51.2043 64.6667 52.9062 64.8889 52.9062 63.7037C52.9062 63.1481 53.1652 62.963 53.8311 62.963C54.867 62.963 55.385 61.7407 54.978 60.2222L54.756 59.3704L57.3459 60.2963C58.7887 60.8148 60.0467 61.1111 60.1946 60.963C60.4166 60.7407 61.7485 55.037 61.7855 54.1852C61.7855 53.963 60.7496 53.1111 59.4917 52.3333L57.1609 50.9259L59.5657 50.7037C60.8976 50.5926 65.7072 50.4815 70.2949 50.4444L78.5823 50.3704L76.8434 52.1481ZM47.0606 56.5185C47.2456 56.6667 47.0976 56.963 46.6906 57.2593C44.8038 58.5555 44.1748 62.5555 45.5067 64.7037C46.3946 66.2222 46.0617 66.2592 44.1378 64.8518C41.326 62.8148 39.9941 58.6667 41.215 55.7778L41.733 54.5185L44.2488 55.4074C45.6177 55.9259 46.8756 56.4074 47.0606 56.5185ZM84.9458 59.4815C85.3528 62.2963 83.7249 65.9259 82.0231 65.9259C80.4692 65.9259 78.4343 63.037 78.4343 60.8148C78.4343 59.5926 78.7673 59.2592 81.5421 57.5555C83.392 56.4074 83.429 56.3704 84.0579 57.0741C84.3909 57.4815 84.7979 58.5555 84.9458 59.4815ZM54.941 81.1852C55.792 85.0741 55.792 85.1111 54.978 85.8518C54.5711 86.2222 53.3131 87.1481 52.2402 87.8889C50.2794 89.2592 50.2794 89.2963 49.0215 88.6667C48.3185 88.3333 47.7265 87.9259 47.7265 87.7407C47.7265 87.5555 48.3925 86.0741 49.2064 84.4444C50.3904 82.0741 50.8713 81.4815 51.5373 81.4815C51.9812 81.4815 52.7582 81.2222 53.2761 80.963C54.5711 80.2222 54.719 80.2592 54.941 81.1852ZM26.8231 97.7407C29.3389 99.1852 31.4477 102.37 31.4477 104.667C31.4477 105.074 29.1539 106.667 28.5619 106.667C28.4139 106.667 27.97 106.074 27.6 105.37C26.6381 103.593 23.7153 100.926 22.0874 100.333L20.7185 99.8518L22.2724 98.2592C23.1233 97.3704 24.0853 96.6667 24.4182 96.6667C24.7142 96.6667 25.8241 97.1481 26.8231 97.7407Z" fill="white" fill-opacity="0.58"/>
</svg>
