<svg width="91" height="91" viewBox="0 0 91 91" fill="none" xmlns="http://www.w3.org/2000/svg">
<path d="M60.4403 69.2738V74.3481H60.3692H30.6307H30.5596V69.2738H30.6307H60.3692H60.4403Z" fill="#E89E62"/>
<path d="M60.4403 50.4801V55.5544H60.3692H30.6307H30.5596V50.4801H30.6307H60.3692H60.4403Z" fill="#E89E62"/>
<path d="M60.4403 16.652V21.7263H60.3692H30.6307H30.5596V16.652H30.6307H60.3692H60.4403Z" fill="#E89E62"/>
<path d="M60.4403 33.5669V38.6394H60.3692H30.6307H30.5596V33.5669H30.6307H60.3692H60.4403Z" fill="#E89E62"/>
<path d="M30.6307 69.2737H30.5596V74.348H30.6307H37.6689V69.2737H30.6307Z" fill="#D68345"/>
<path d="M37.6689 55.5544V50.4801H30.6307H30.5596V55.5544H30.6307H37.6689Z" fill="#D68345"/>
<path d="M37.6689 21.7263V16.652H30.6307H30.5596V21.7263H30.6307H37.6689Z" fill="#D68345"/>
<path d="M37.6689 38.6394V33.5669H30.6307H30.5596V38.6394H30.6307H37.6689Z" fill="#D68345"/>
<path d="M29.719 3.43738C29.2328 2.95117 28.6134 2.62005 27.939 2.48589C27.2647 2.35173 26.5657 2.42056 25.9305 2.68367C25.2952 2.94678 24.7523 3.39236 24.3703 3.96405C23.9883 4.53574 23.7844 5.20788 23.7844 5.89545V85.1046C23.7844 85.5611 23.8743 86.0132 24.0491 86.4349C24.2238 86.8567 24.4798 87.24 24.8027 87.5628C25.1255 87.8856 25.5087 88.1417 25.9305 88.3164C26.3523 88.4911 26.8044 88.581 27.2609 88.581C27.7174 88.581 28.1695 88.4911 28.5913 88.3164C29.0131 88.1417 29.3963 87.8856 29.7191 87.5628C30.042 87.24 30.298 86.8567 30.4728 86.4349C30.6475 86.0132 30.7374 85.5611 30.7374 85.1046V5.89545C30.7381 5.43881 30.6485 4.98654 30.4737 4.56468C30.2989 4.14282 30.0424 3.7597 29.719 3.43738Z" fill="#F9B248"/>
<path d="M66.1972 3.43738C65.7111 2.95117 65.0917 2.62005 64.4173 2.48589C63.743 2.35173 63.044 2.42056 62.4087 2.68367C61.7735 2.94678 61.2305 3.39236 60.8486 3.96405C60.4666 4.53574 60.2627 5.20788 60.2627 5.89545V85.1046C60.2627 86.0266 60.629 86.9108 61.2809 87.5628C61.9329 88.2148 62.8172 88.581 63.7392 88.581C64.6612 88.581 65.5455 88.2148 66.1974 87.5628C66.8494 86.9108 67.2157 86.0266 67.2157 85.1046V5.89545C67.2164 5.43881 67.1268 4.98654 66.952 4.56468C66.7772 4.14282 66.5207 3.7597 66.1972 3.43738Z" fill="#F9B248"/>
</svg>
