<svg width="182" height="182" viewBox="0 0 182 182" fill="none" xmlns="http://www.w3.org/2000/svg">
<path d="M120.881 138.548V148.696H120.738H61.2613H61.1191V138.548H61.2613H120.738H120.881Z" fill="#E89E62"/>
<path d="M120.881 100.96V111.109H120.738H61.2613H61.1191V100.96H61.2613H120.738H120.881Z" fill="#E89E62"/>
<path d="M120.881 33.304V43.4526H120.738H61.2613H61.1191V33.304H61.2613H120.738H120.881Z" fill="#E89E62"/>
<path d="M120.881 67.1338V77.2789H120.738H61.2613H61.1191V67.1338H61.2613H120.738H120.881Z" fill="#E89E62"/>
<path d="M61.2613 138.547H61.1191V148.696H61.2613H75.3379V138.547H61.2613Z" fill="#D68345"/>
<path d="M75.3379 111.109V100.96H61.2613H61.1191V111.109H61.2613H75.3379Z" fill="#D68345"/>
<path d="M75.3379 43.4526V33.304H61.2613H61.1191V43.4526H61.2613H75.3379Z" fill="#D68345"/>
<path d="M75.3379 77.2789V67.1338H61.2613H61.1191V77.2789H61.2613H75.3379Z" fill="#D68345"/>
<path d="M59.4379 6.87476C58.4656 5.90234 57.2268 5.2401 55.8781 4.97177C54.5294 4.70345 53.1314 4.84111 51.8609 5.36733C50.5904 5.89356 49.5045 6.78471 48.7406 7.9281C47.9766 9.07149 47.5688 10.4158 47.5688 11.7909V170.209C47.5688 171.122 47.7487 172.026 48.0981 172.87C48.4475 173.713 48.9597 174.48 49.6053 175.126C50.251 175.771 51.0175 176.283 51.861 176.633C52.7046 176.982 53.6087 177.162 54.5218 177.162C55.4349 177.162 56.339 176.982 57.1826 176.633C58.0262 176.283 58.7927 175.771 59.4383 175.126C60.0839 174.48 60.5961 173.713 60.9455 172.87C61.2949 172.026 61.4748 171.122 61.4748 170.209V11.7909C61.4762 10.8776 61.297 9.97309 60.9474 9.12937C60.5979 8.28565 60.0849 7.51941 59.4379 6.87476Z" fill="#F9B248"/>
<path d="M132.395 6.87476C131.422 5.90234 130.183 5.2401 128.835 4.97177C127.486 4.70345 126.088 4.84111 124.817 5.36733C123.547 5.89356 122.461 6.78471 121.697 7.9281C120.933 9.07149 120.525 10.4158 120.525 11.7909V170.209C120.525 172.053 121.258 173.822 122.562 175.126C123.866 176.43 125.634 177.162 127.478 177.162C129.322 177.162 131.091 176.43 132.395 175.126C133.699 173.822 134.431 172.053 134.431 170.209V11.7909C134.433 10.8776 134.254 9.97309 133.904 9.12937C133.554 8.28565 133.041 7.51941 132.395 6.87476V6.87476Z" fill="#F9B248"/>
</svg>
